<svg width="410" height="252" viewBox="0 0 410 252" xmlns="http://www.w3.org/2000/svg" lang="en" xml:lang="en"><rect x="2" y="2" stroke-width="4" rx="0" width="406" height="248" stroke="#0d1117" fill="#0d1117"/><g font-weight="600" font-size="110pt" font-family="Verdana,Geneva,DejaVu Sans,sans-serif" text-rendering="geometricPrecision"><g transform="translate(0, 21)" fill="#c9d1d9"><g transform="translate(15, 0)"><g transform="scale(0.095)"><text x="0" y="132" textLength="3652" lengthAdjust="spacingAndGlyphs">Language Distribution in Public Repositories</text></g></g><g transform="translate(220, 21)"><circle cx="81" cy="81" r="81" fill="#ffffff"/></g><g transform="translate(221, 22)"><path fill-rule="evenodd" fill="#3178c6" d="M 0.0,80.00000000000001 A 80 80 0 0 1 146.04544571304547 34.85579660061367 L 80,80 Z"/><path fill-rule="evenodd" fill="#b07219" d="M 146.04544571304547,34.85579660061367 A 80 80 0 0 1 134.48530674357139 138.5777376573979 L 80,80 Z"/><path fill-rule="evenodd" fill="#f34b7d" d="M 134.48530674357139,138.5777376573979 A 80 80 0 0 1 69.68672623965881 159.33244219324308 L 80,80 Z"/><path fill-rule="evenodd" fill="#dea584" d="M 69.68672623965881,159.33244219324308 A 80 80 0 0 1 15.297055894498612 127.04815643657426 L 80,80 Z"/><path fill-rule="evenodd" fill="#DA3434" d="M 15.297055894498612,127.04815643657426 A 80 80 0 0 1 5.484849989911723 109.11172305058633 L 80,80 Z"/><path fill-rule="evenodd" fill="#89e051" d="M 5.484849989911723,109.11172305058633 A 80 80 0 0 1 2.5245097244810637 99.93861596420301 L 80,80 Z"/><path fill-rule="evenodd" fill="#663399" d="M 2.5245097244810637,99.93861596420301 A 80 80 0 0 1 0.7962084262609608 91.25874772537803 L 80,80 Z"/><path fill-rule="evenodd" fill="#f1e05a" d="M 0.7962084262609608,91.25874772537803 A 80 80 0 0 1 0.11792365112037828 84.34210527184295 L 80,80 Z"/><path fill-rule="evenodd" fill="#959da5" d="M 0.11792365112037828,84.34210527184295 A 80 80 0 0 1 0.0 80.00000000000003 L 80,80 Z"/></g><g transform="translate(15, 21)"><rect x="0.5" y="0.5" rx="2" width="15" height="15" fill="#3178c6" stroke-width="1" stroke="#ffffff"/><text transform="scale(0.095)" x="263" y="132" textLength="1568" lengthAdjust="spacingAndGlyphs">TypeScript 40.46%</text></g><g transform="translate(15, 42)"><rect x="0.5" y="0.5" rx="2" width="15" height="15" fill="#b07219" stroke-width="1" stroke="#ffffff"/><text transform="scale(0.095)" x="263" y="132" textLength="1038" lengthAdjust="spacingAndGlyphs">Java 22.62%</text></g><g transform="translate(15, 63)"><rect x="0.5" y="0.5" rx="2" width="15" height="15" fill="#f34b7d" stroke-width="1" stroke="#ffffff"/><text transform="scale(0.095)" x="263" y="132" textLength="1074" lengthAdjust="spacingAndGlyphs">C++ 13.98%</text></g><g transform="translate(15, 84)"><rect x="0.5" y="0.5" rx="2" width="15" height="15" fill="#dea584" stroke-width="1" stroke="#ffffff"/><text transform="scale(0.095)" x="263" y="132" textLength="1052" lengthAdjust="spacingAndGlyphs">Rust 12.94%</text></g><g transform="translate(15, 105)"><rect x="0.5" y="0.5" rx="2" width="15" height="15" fill="#DA3434" stroke-width="1" stroke="#ffffff"/><text transform="scale(0.095)" x="263" y="132" textLength="1134" lengthAdjust="spacingAndGlyphs">CMake 4.08%</text></g><g transform="translate(15, 126)"><rect x="0.5" y="0.5" rx="2" width="15" height="15" fill="#89e051" stroke-width="1" stroke="#ffffff"/><text transform="scale(0.095)" x="263" y="132" textLength="982" lengthAdjust="spacingAndGlyphs">Shell 1.92%</text></g><g transform="translate(15, 147)"><rect x="0.5" y="0.5" rx="2" width="15" height="15" fill="#663399" stroke-width="1" stroke="#ffffff"/><text transform="scale(0.095)" x="263" y="132" textLength="903" lengthAdjust="spacingAndGlyphs">CSS 1.76%</text></g><g transform="translate(15, 168)"><rect x="0.5" y="0.5" rx="2" width="15" height="15" fill="#f1e05a" stroke-width="1" stroke="#ffffff"/><text transform="scale(0.095)" x="263" y="132" textLength="1412" lengthAdjust="spacingAndGlyphs">JavaScript 1.38%</text></g><g transform="translate(15, 189)"><rect x="0.5" y="0.5" rx="2" width="15" height="15" fill="#959da5" stroke-width="1" stroke="#ffffff"/><text transform="scale(0.095)" x="263" y="132" textLength="1047" lengthAdjust="spacingAndGlyphs">Other 0.86%</text></g></g></g></svg>