<svg width="410" height="230" viewBox="0 0 410 230" xmlns="http://www.w3.org/2000/svg" lang="en" xml:lang="en"><rect x="2" y="2" stroke-width="4" rx="0" width="406" height="226" stroke="#0d1117" fill="#0d1117"/><g font-weight="600" font-size="110pt" font-family="Verdana,Geneva,DejaVu Sans,sans-serif" text-rendering="geometricPrecision"><g transform="translate(0, 21)" fill="#c9d1d9"><g transform="translate(15, 0)"><g transform="scale(0.095)"><text x="0" y="132" textLength="3652" lengthAdjust="spacingAndGlyphs">Language Distribution in Public Repositories</text></g></g><g transform="translate(220, 21)"><circle cx="81" cy="81" r="81" fill="#ffffff"/></g><g transform="translate(221, 22)"><path fill-rule="evenodd" fill="#f1e05a" d="M 0.0,80.00000000000001 A 80 80 0 0 1 150.024897821416 41.315200852269555 L 80,80 Z"/><path fill-rule="evenodd" fill="#3178c6" d="M 150.024897821416,41.315200852269555 A 80 80 0 0 1 115.9932443842751 151.44568817426176 L 80,80 Z"/><path fill-rule="evenodd" fill="#dea584" d="M 115.9932443842751,151.44568817426176 A 80 80 0 0 1 62.26097621087193 158.00850617085774 L 80,80 Z"/><path fill-rule="evenodd" fill="#b07219" d="M 62.26097621087193,158.00850617085774 A 80 80 0 0 1 18.017462226089542 130.57830573581685 L 80,80 Z"/><path fill-rule="evenodd" fill="#f34b7d" d="M 18.017462226089542,130.57830573581685 A 80 80 0 0 1 3.000193919878299 101.7032224248763 L 80,80 Z"/><path fill-rule="evenodd" fill="#DA3434" d="M 3.000193919878299,101.7032224248763 A 80 80 0 0 1 0.9618361567356999 92.36804981738459 L 80,80 Z"/><path fill-rule="evenodd" fill="#959da5" d="M 0.9618361567356999,92.36804981738459 A 80 80 0 0 1 0.0 80.00000000000003 L 80,80 Z"/></g><g transform="translate(15, 21)"><rect x="0.5" y="0.5" rx="2" width="15" height="15" fill="#f1e05a" stroke-width="1" stroke="#ffffff"/><text transform="scale(0.095)" x="263" y="132" textLength="1516" lengthAdjust="spacingAndGlyphs">JavaScript 41.97%</text></g><g transform="translate(15, 42)"><rect x="0.5" y="0.5" rx="2" width="15" height="15" fill="#3178c6" stroke-width="1" stroke="#ffffff"/><text transform="scale(0.095)" x="263" y="132" textLength="1568" lengthAdjust="spacingAndGlyphs">TypeScript 25.61%</text></g><g transform="translate(15, 63)"><rect x="0.5" y="0.5" rx="2" width="15" height="15" fill="#dea584" stroke-width="1" stroke="#ffffff"/><text transform="scale(0.095)" x="263" y="132" textLength="1052" lengthAdjust="spacingAndGlyphs">Rust 10.99%</text></g><g transform="translate(15, 84)"><rect x="0.5" y="0.5" rx="2" width="15" height="15" fill="#b07219" stroke-width="1" stroke="#ffffff"/><text transform="scale(0.095)" x="263" y="132" textLength="1038" lengthAdjust="spacingAndGlyphs">Java 10.55%</text></g><g transform="translate(15, 105)"><rect x="0.5" y="0.5" rx="2" width="15" height="15" fill="#f34b7d" stroke-width="1" stroke="#ffffff"/><text transform="scale(0.095)" x="263" y="132" textLength="969" lengthAdjust="spacingAndGlyphs">C++ 6.52%</text></g><g transform="translate(15, 126)"><rect x="0.5" y="0.5" rx="2" width="15" height="15" fill="#DA3434" stroke-width="1" stroke="#ffffff"/><text transform="scale(0.095)" x="263" y="132" textLength="1134" lengthAdjust="spacingAndGlyphs">CMake 1.90%</text></g><g transform="translate(15, 147)"><rect x="0.5" y="0.5" rx="2" width="15" height="15" fill="#959da5" stroke-width="1" stroke="#ffffff"/><text transform="scale(0.095)" x="263" y="132" textLength="1047" lengthAdjust="spacingAndGlyphs">Other 2.47%</text></g></g></g></svg>