<svg width="410" height="252" viewBox="0 0 410 252" xmlns="http://www.w3.org/2000/svg" lang="en" xml:lang="en"><rect x="2" y="2" stroke-width="4" rx="0" width="406" height="248" stroke="#0d1117" fill="#0d1117"/><g font-weight="600" font-size="110pt" font-family="Verdana,Geneva,DejaVu Sans,sans-serif" text-rendering="geometricPrecision"><g transform="translate(0, 21)" fill="#c9d1d9"><g transform="translate(15, 0)"><g transform="scale(0.095)"><text x="0" y="132" textLength="3652" lengthAdjust="spacingAndGlyphs">Language Distribution in Public Repositories</text></g></g><g transform="translate(220, 21)"><circle cx="81" cy="81" r="81" fill="#ffffff"/></g><g transform="translate(221, 22)"><path fill-rule="evenodd" fill="#3178c6" d="M 0.0,80.00000000000001 A 80 80 0 0 1 101.40166796736834 2.915834257517446 L 80,80 Z"/><path fill-rule="evenodd" fill="#b07219" d="M 101.40166796736834,2.915834257517446 A 80 80 0 0 1 153.89153735644913 110.66008328593523 L 80,80 Z"/><path fill-rule="evenodd" fill="#f34b7d" d="M 153.89153735644913,110.66008328593523 A 80 80 0 0 1 90.43226110651689 159.31688299602712 L 80,80 Z"/><path fill-rule="evenodd" fill="#dea584" d="M 90.43226110651689,159.31688299602712 A 80 80 0 0 1 20.553055099280115 133.53560256474913 L 80,80 Z"/><path fill-rule="evenodd" fill="#DA3434" d="M 20.553055099280115,133.53560256474913 A 80 80 0 0 1 7.209342361588696 113.18915727413992 L 80,80 Z"/><path fill-rule="evenodd" fill="#89e051" d="M 7.209342361588696,113.18915727413992 A 80 80 0 0 1 3.2079570183391297 102.42726320135272 L 80,80 Z"/><path fill-rule="evenodd" fill="#663399" d="M 3.2079570183391297,102.42726320135272 A 80 80 0 0 1 0.9256615451952257 92.1346198100716 L 80,80 Z"/><path fill-rule="evenodd" fill="#f1e05a" d="M 0.9256615451952257,92.1346198100716 A 80 80 0 0 1 0.16738988287661982 85.17246187877399 L 80,80 Z"/><path fill-rule="evenodd" fill="#959da5" d="M 0.16738988287661982,85.17246187877399 A 80 80 0 0 1 0.0 80.00000000000003 L 80,80 Z"/></g><g transform="translate(15, 21)"><rect x="0.5" y="0.5" rx="2" width="15" height="15" fill="#3178c6" stroke-width="1" stroke="#ffffff"/><text transform="scale(0.095)" x="263" y="132" textLength="1568" lengthAdjust="spacingAndGlyphs">TypeScript 29.31%</text></g><g transform="translate(15, 42)"><rect x="0.5" y="0.5" rx="2" width="15" height="15" fill="#b07219" stroke-width="1" stroke="#ffffff"/><text transform="scale(0.095)" x="263" y="132" textLength="1038" lengthAdjust="spacingAndGlyphs">Java 26.95%</text></g><g transform="translate(15, 63)"><rect x="0.5" y="0.5" rx="2" width="15" height="15" fill="#f34b7d" stroke-width="1" stroke="#ffffff"/><text transform="scale(0.095)" x="263" y="132" textLength="1074" lengthAdjust="spacingAndGlyphs">C++ 16.66%</text></g><g transform="translate(15, 84)"><rect x="0.5" y="0.5" rx="2" width="15" height="15" fill="#dea584" stroke-width="1" stroke="#ffffff"/><text transform="scale(0.095)" x="263" y="132" textLength="1052" lengthAdjust="spacingAndGlyphs">Rust 15.41%</text></g><g transform="translate(15, 105)"><rect x="0.5" y="0.5" rx="2" width="15" height="15" fill="#DA3434" stroke-width="1" stroke="#ffffff"/><text transform="scale(0.095)" x="263" y="132" textLength="1134" lengthAdjust="spacingAndGlyphs">CMake 4.86%</text></g><g transform="translate(15, 126)"><rect x="0.5" y="0.5" rx="2" width="15" height="15" fill="#89e051" stroke-width="1" stroke="#ffffff"/><text transform="scale(0.095)" x="263" y="132" textLength="982" lengthAdjust="spacingAndGlyphs">Shell 2.29%</text></g><g transform="translate(15, 147)"><rect x="0.5" y="0.5" rx="2" width="15" height="15" fill="#663399" stroke-width="1" stroke="#ffffff"/><text transform="scale(0.095)" x="263" y="132" textLength="903" lengthAdjust="spacingAndGlyphs">CSS 2.10%</text></g><g transform="translate(15, 168)"><rect x="0.5" y="0.5" rx="2" width="15" height="15" fill="#f1e05a" stroke-width="1" stroke="#ffffff"/><text transform="scale(0.095)" x="263" y="132" textLength="1412" lengthAdjust="spacingAndGlyphs">JavaScript 1.39%</text></g><g transform="translate(15, 189)"><rect x="0.5" y="0.5" rx="2" width="15" height="15" fill="#959da5" stroke-width="1" stroke="#ffffff"/><text transform="scale(0.095)" x="263" y="132" textLength="1047" lengthAdjust="spacingAndGlyphs">Other 1.03%</text></g></g></g></svg>