<svg width="410" height="230" viewBox="0 0 410 230" xmlns="http://www.w3.org/2000/svg" lang="en" xml:lang="en"><rect x="2" y="2" stroke-width="4" rx="0" width="406" height="226" stroke="#0d1117" fill="#0d1117"/><g font-weight="600" font-size="110pt" font-family="Verdana,Geneva,DejaVu Sans,sans-serif" text-rendering="geometricPrecision"><g transform="translate(0, 21)" fill="#c9d1d9"><g transform="translate(15, 0)"><g transform="scale(0.095)"><text x="0" y="132" textLength="3652" lengthAdjust="spacingAndGlyphs">Language Distribution in Public Repositories</text></g></g><g transform="translate(220, 21)"><circle cx="81" cy="81" r="81" fill="#ffffff"/></g><g transform="translate(221, 22)"><path fill-rule="evenodd" fill="#3178c6" d="M 0.0,80.00000000000001 A 80 80 0 0 1 139.38775287298716 26.39874247093634 L 80,80 Z"/><path fill-rule="evenodd" fill="#b07219" d="M 139.38775287298716,26.39874247093634 A 80 80 0 0 1 87.31409553917797 159.66494841800738 L 80,80 Z"/><path fill-rule="evenodd" fill="#dea584" d="M 87.31409553917797,159.66494841800738 A 80 80 0 0 1 6.2032870081651055 110.88762133283731 L 80,80 Z"/><path fill-rule="evenodd" fill="#663399" d="M 6.2032870081651055,110.88762133283731 A 80 80 0 0 1 1.9987138537734381 97.77074448453087 L 80,80 Z"/><path fill-rule="evenodd" fill="#f1e05a" d="M 1.9987138537734381,97.77074448453087 A 80 80 0 0 1 0.47940914923761113 88.74503463375909 L 80,80 Z"/><path fill-rule="evenodd" fill="#89e051" d="M 0.47940914923761113,88.74503463375909 A 80 80 0 0 1 0.0014680906596851173 80.48465694079289 L 80,80 Z"/><path fill-rule="evenodd" fill="#959da5" d="M 0.0014680906596851173,80.48465694079289 A 80 80 0 0 1 0.0 80.00000000000003 L 80,80 Z"/></g><g transform="translate(15, 21)"><rect x="0.5" y="0.5" rx="2" width="15" height="15" fill="#3178c6" stroke-width="1" stroke="#ffffff"/><text transform="scale(0.095)" x="263" y="132" textLength="1568" lengthAdjust="spacingAndGlyphs">TypeScript 38.31%</text></g><g transform="translate(15, 42)"><rect x="0.5" y="0.5" rx="2" width="15" height="15" fill="#b07219" stroke-width="1" stroke="#ffffff"/><text transform="scale(0.095)" x="263" y="132" textLength="1038" lengthAdjust="spacingAndGlyphs">Java 35.23%</text></g><g transform="translate(15, 63)"><rect x="0.5" y="0.5" rx="2" width="15" height="15" fill="#dea584" stroke-width="1" stroke="#ffffff"/><text transform="scale(0.095)" x="263" y="132" textLength="1052" lengthAdjust="spacingAndGlyphs">Rust 20.15%</text></g><g transform="translate(15, 84)"><rect x="0.5" y="0.5" rx="2" width="15" height="15" fill="#663399" stroke-width="1" stroke="#ffffff"/><text transform="scale(0.095)" x="263" y="132" textLength="903" lengthAdjust="spacingAndGlyphs">CSS 2.74%</text></g><g transform="translate(15, 105)"><rect x="0.5" y="0.5" rx="2" width="15" height="15" fill="#f1e05a" stroke-width="1" stroke="#ffffff"/><text transform="scale(0.095)" x="263" y="132" textLength="1412" lengthAdjust="spacingAndGlyphs">JavaScript 1.82%</text></g><g transform="translate(15, 126)"><rect x="0.5" y="0.5" rx="2" width="15" height="15" fill="#89e051" stroke-width="1" stroke="#ffffff"/><text transform="scale(0.095)" x="263" y="132" textLength="982" lengthAdjust="spacingAndGlyphs">Shell 1.65%</text></g><g transform="translate(15, 147)"><rect x="0.5" y="0.5" rx="2" width="15" height="15" fill="#959da5" stroke-width="1" stroke="#ffffff"/><text transform="scale(0.095)" x="263" y="132" textLength="1047" lengthAdjust="spacingAndGlyphs">Other 0.10%</text></g></g></g></svg>