<svg width="410" height="231" viewBox="0 0 410 231" xmlns="http://www.w3.org/2000/svg" lang="en" xml:lang="en"><rect x="2" y="2" stroke-width="4" rx="0" width="406" height="227" stroke="#0d1117" fill="#0d1117"/><g font-weight="600" font-size="110pt" font-family="Verdana,Geneva,DejaVu Sans,sans-serif" text-rendering="geometricPrecision"><g transform="translate(0, 21)" fill="#c9d1d9"><g transform="translate(15, 0)"><g transform="scale(0.095)"><text x="0" y="132" textLength="3652" lengthAdjust="spacingAndGlyphs">Language Distribution in Public Repositories</text></g></g><g transform="translate(220, 21)"><circle cx="81" cy="81" r="81" fill="#ffffff"/></g><g transform="translate(221, 22)"><path fill-rule="evenodd" fill="#f1e05a" d="M 0.0,80.00000000000001 A 80 80 0 0 1 153.15775297148488 47.628049484728365 L 80,80 Z"/><path fill-rule="evenodd" fill="#3178c6" d="M 153.15775297148488,47.628049484728365 A 80 80 0 0 1 118.74857048544663 149.98962984138703 L 80,80 Z"/><path fill-rule="evenodd" fill="#b07219" d="M 118.74857048544663,149.98962984138703 A 80 80 0 0 1 56.425536118835296 156.44765956336178 L 80,80 Z"/><path fill-rule="evenodd" fill="#f34b7d" d="M 56.425536118835296,156.44765956336178 A 80 80 0 0 1 22.802622719702896 135.9326383452037 L 80,80 Z"/><path fill-rule="evenodd" fill="#dea584" d="M 22.802622719702896,135.9326383452037 A 80 80 0 0 1 3.9104814677997837 104.70597436932937 L 80,80 Z"/><path fill-rule="evenodd" fill="#DA3434" d="M 3.9104814677997837,104.70597436932937 A 80 80 0 0 1 1.1376527955923166 93.44359302461405 L 80,80 Z"/><path fill-rule="evenodd" fill="#89e051" d="M 1.1376527955923166,93.44359302461405 A 80 80 0 0 1 0.4042944510237305 88.03266195981554 L 80,80 Z"/><path fill-rule="evenodd" fill="#959da5" d="M 0.4042944510237305,88.03266195981554 A 80 80 0 0 1 0.0 80.00000000000003 L 80,80 Z"/></g><g transform="translate(15, 21)"><rect x="0.5" y="0.5" rx="2" width="15" height="15" fill="#f1e05a" stroke-width="1" stroke="#ffffff"/><text transform="scale(0.095)" x="263" y="132" textLength="1516" lengthAdjust="spacingAndGlyphs">JavaScript 43.37%</text></g><g transform="translate(15, 42)"><rect x="0.5" y="0.5" rx="2" width="15" height="15" fill="#3178c6" stroke-width="1" stroke="#ffffff"/><text transform="scale(0.095)" x="263" y="132" textLength="1568" lengthAdjust="spacingAndGlyphs">TypeScript 23.58%</text></g><g transform="translate(15, 63)"><rect x="0.5" y="0.5" rx="2" width="15" height="15" fill="#b07219" stroke-width="1" stroke="#ffffff"/><text transform="scale(0.095)" x="263" y="132" textLength="1038" lengthAdjust="spacingAndGlyphs">Java 12.81%</text></g><g transform="translate(15, 84)"><rect x="0.5" y="0.5" rx="2" width="15" height="15" fill="#f34b7d" stroke-width="1" stroke="#ffffff"/><text transform="scale(0.095)" x="263" y="132" textLength="969" lengthAdjust="spacingAndGlyphs">C++ 7.92%</text></g><g transform="translate(15, 105)"><rect x="0.5" y="0.5" rx="2" width="15" height="15" fill="#dea584" stroke-width="1" stroke="#ffffff"/><text transform="scale(0.095)" x="263" y="132" textLength="946" lengthAdjust="spacingAndGlyphs">Rust 7.33%</text></g><g transform="translate(15, 126)"><rect x="0.5" y="0.5" rx="2" width="15" height="15" fill="#DA3434" stroke-width="1" stroke="#ffffff"/><text transform="scale(0.095)" x="263" y="132" textLength="1134" lengthAdjust="spacingAndGlyphs">CMake 2.31%</text></g><g transform="translate(15, 147)"><rect x="0.5" y="0.5" rx="2" width="15" height="15" fill="#89e051" stroke-width="1" stroke="#ffffff"/><text transform="scale(0.095)" x="263" y="132" textLength="982" lengthAdjust="spacingAndGlyphs">Shell 1.09%</text></g><g transform="translate(15, 168)"><rect x="0.5" y="0.5" rx="2" width="15" height="15" fill="#959da5" stroke-width="1" stroke="#ffffff"/><text transform="scale(0.095)" x="263" y="132" textLength="1047" lengthAdjust="spacingAndGlyphs">Other 1.60%</text></g></g></g></svg>