<svg width="410" height="252" viewBox="0 0 410 252" xmlns="http://www.w3.org/2000/svg" lang="en" xml:lang="en"><rect x="2" y="2" stroke-width="4" rx="0" width="406" height="248" stroke="#0d1117" fill="#0d1117"/><g font-weight="600" font-size="110pt" font-family="Verdana,Geneva,DejaVu Sans,sans-serif" text-rendering="geometricPrecision"><g transform="translate(0, 21)" fill="#c9d1d9"><g transform="translate(15, 0)"><g transform="scale(0.095)"><text x="0" y="132" textLength="3652" lengthAdjust="spacingAndGlyphs">Language Distribution in Public Repositories</text></g></g><g transform="translate(220, 21)"><circle cx="81" cy="81" r="81" fill="#ffffff"/></g><g transform="translate(221, 22)"><path fill-rule="evenodd" fill="#3178c6" d="M 0.0,80.00000000000001 A 80 80 0 0 1 104.1299425882378 3.725850573812707 L 80,80 Z"/><path fill-rule="evenodd" fill="#b07219" d="M 104.1299425882378,3.725850573812707 A 80 80 0 0 1 151.62723095141087 115.63060182249592 L 80,80 Z"/><path fill-rule="evenodd" fill="#dea584" d="M 151.62723095141087,115.63060182249592 A 80 80 0 0 1 89.73891935741538 159.4049963777454 L 80,80 Z"/><path fill-rule="evenodd" fill="#f34b7d" d="M 89.73891935741538,159.4049963777454 A 80 80 0 0 1 21.297830886468923 134.35122207794777 L 80,80 Z"/><path fill-rule="evenodd" fill="#DA3434" d="M 21.297830886468923,134.35122207794777 A 80 80 0 0 1 7.4861065477809206 113.7895731905601 L 80,80 Z"/><path fill-rule="evenodd" fill="#89e051" d="M 7.4861065477809206,113.7895731905601 A 80 80 0 0 1 3.3322219866418124 102.84845321885993 L 80,80 Z"/><path fill-rule="evenodd" fill="#663399" d="M 3.3322219866418124,102.84845321885993 A 80 80 0 0 1 0.9616986496827309 92.36717104500607 L 80,80 Z"/><path fill-rule="evenodd" fill="#f1e05a" d="M 0.9616986496827309,92.36717104500607 A 80 80 0 0 1 0.17391731677024325 85.27224083764838 L 80,80 Z"/><path fill-rule="evenodd" fill="#959da5" d="M 0.17391731677024325,85.27224083764838 A 80 80 0 0 1 0.0 80.00000000000003 L 80,80 Z"/></g><g transform="translate(15, 21)"><rect x="0.5" y="0.5" rx="2" width="15" height="15" fill="#3178c6" stroke-width="1" stroke="#ffffff"/><text transform="scale(0.095)" x="263" y="132" textLength="1568" lengthAdjust="spacingAndGlyphs">TypeScript 29.88%</text></g><g transform="translate(15, 42)"><rect x="0.5" y="0.5" rx="2" width="15" height="15" fill="#b07219" stroke-width="1" stroke="#ffffff"/><text transform="scale(0.095)" x="263" y="132" textLength="1038" lengthAdjust="spacingAndGlyphs">Java 27.47%</text></g><g transform="translate(15, 63)"><rect x="0.5" y="0.5" rx="2" width="15" height="15" fill="#dea584" stroke-width="1" stroke="#ffffff"/><text transform="scale(0.095)" x="263" y="132" textLength="1052" lengthAdjust="spacingAndGlyphs">Rust 15.71%</text></g><g transform="translate(15, 84)"><rect x="0.5" y="0.5" rx="2" width="15" height="15" fill="#f34b7d" stroke-width="1" stroke="#ffffff"/><text transform="scale(0.095)" x="263" y="132" textLength="1074" lengthAdjust="spacingAndGlyphs">C++ 15.05%</text></g><g transform="translate(15, 105)"><rect x="0.5" y="0.5" rx="2" width="15" height="15" fill="#DA3434" stroke-width="1" stroke="#ffffff"/><text transform="scale(0.095)" x="263" y="132" textLength="1134" lengthAdjust="spacingAndGlyphs">CMake 4.95%</text></g><g transform="translate(15, 126)"><rect x="0.5" y="0.5" rx="2" width="15" height="15" fill="#89e051" stroke-width="1" stroke="#ffffff"/><text transform="scale(0.095)" x="263" y="132" textLength="982" lengthAdjust="spacingAndGlyphs">Shell 2.33%</text></g><g transform="translate(15, 147)"><rect x="0.5" y="0.5" rx="2" width="15" height="15" fill="#663399" stroke-width="1" stroke="#ffffff"/><text transform="scale(0.095)" x="263" y="132" textLength="903" lengthAdjust="spacingAndGlyphs">CSS 2.14%</text></g><g transform="translate(15, 168)"><rect x="0.5" y="0.5" rx="2" width="15" height="15" fill="#f1e05a" stroke-width="1" stroke="#ffffff"/><text transform="scale(0.095)" x="263" y="132" textLength="1412" lengthAdjust="spacingAndGlyphs">JavaScript 1.42%</text></g><g transform="translate(15, 189)"><rect x="0.5" y="0.5" rx="2" width="15" height="15" fill="#959da5" stroke-width="1" stroke="#ffffff"/><text transform="scale(0.095)" x="263" y="132" textLength="1047" lengthAdjust="spacingAndGlyphs">Other 1.05%</text></g></g></g></svg>